<?xml version="1.0" encoding="UTF-8" standalone="no"?>
<!DOCTYPE svg PUBLIC "-//W3C//DTD SVG 1.1//EN" "http://www.w3.org/Graphics/SVG/1.1/DTD/svg11.dtd">
<svg width="100%" height="100%" viewBox="0 0 4 4" version="1.1" xmlns="http://www.w3.org/2000/svg" xmlns:xlink="http://www.w3.org/1999/xlink" xml:space="preserve" xmlns:serif="http://www.serif.com/" style="fill-rule:evenodd;clip-rule:evenodd;stroke-linejoin:round;stroke-miterlimit:2;">
    <g transform="matrix(1.017657,0,0,1.017657,0.015136,-0.009204)">
        <path d="M0.476,1.843L0.476,0.141C0.621,0.057 0.789,0.009 0.968,0.009C1.147,0.009 1.315,0.057 1.459,0.141L1.459,1.843C1.315,1.926 1.147,1.974 0.968,1.974C0.789,1.974 0.621,1.926 0.476,1.843Z"/>
    </g>
    <g transform="matrix(1.017657,0,0,1.017657,2.015136,-0.009204)">
        <circle cx="0.968" cy="0.992" r="0.983"/>
    </g>
    <g transform="matrix(1.017657,0,0,1.017657,0.015136,1.990796)">
        <circle cx="0.968" cy="0.992" r="0.983"/>
    </g>
    <g transform="matrix(1.017657,0,0,1.017657,2.015136,1.990796)">
        <circle cx="0.968" cy="0.992" r="0.983"/>
    </g>
</svg>
